# xmcd CD database file
#
# Track frame offsets:
#	150
#	12403
#	21270
#	32996
#	45874
#	59114
#	75802
#	88513
#	103177
#	116822
#	128187
#	139137
#	153224
#	164777
#	177463
#	189597
#	203744
#	216006
#	229380
#	241542
#
# Disc length: 3417 seconds
#
# Revision: 0
# Processed by: cddbd v1.5.2PL0 Copyright (c) Steve Scherf et al.
# Submitted via: CDex 2.14
#
DISCID=120d5714
DTITLE=Various Artist - Blues Belters D2
DYEAR=2011
DGENRE=Blues
TTITLE0=Louis Jordan - Caldonia Boogie
TTITLE1=Smiley Lewis - Shame Shame Shame
TTITLE2=Jimmy Witherspoon - Two Little Girls
TTITLE3=Sonny Parker - She Sets My Soul On Fire
TTITLE4=Big Joe Turner - Roll 'Em Pete
TTITLE5=Jimmy Rushing - Boogie Woogie (I May Be Wrong)
TTITLE6=Tiny Bradshaw - Gravy Train
TTITLE7=Eddie Vinson - Juice Head Baby
TTITLE8=Walter Brown with Jay McShann's Orchestra - Hootie Blues
TTITLE9=Bull Moose Jackson - Big Ten Inch Record
TTITLE10=Piney Brown - How About Rocking With Me
TTITLE11=Joe Liggins - The Honeydripper Pt 1
TTITLE12=H-Bomb Ferguson - Give It Up
TTITLE13=Clarence Gatemouth Brown - I Can Never Be That Way
TTITLE14=Wynomie Harris - Good Morning Judge
TTITLE15=Roy Brown - Dreaming Blues
TTITLE16=Smiley Lewis - Blue Monday
TTITLE17=Jimmy Rushing - Jimmy's Blues
TTITLE18=Tiny Bradshaw - Well Oh Well
TTITLE19=Amos Milburn - One Scotch, One Bourbon, One Beer
EXTD=YEAR: 2011
EXTT0=
EXTT1=
EXTT2=
EXTT3=
EXTT4=
EXTT5=
EXTT6=
EXTT7=
EXTT8=
EXTT9=
EXTT10=
EXTT11=
EXTT12=
EXTT13=
EXTT14=
EXTT15=
EXTT16=
EXTT17=
EXTT18=
EXTT19=
PLAYORDER=
